<svg width="519" height="711" viewBox="0 0 519 711" fill="none" xmlns="http://www.w3.org/2000/svg">
<ellipse cx="262.508" cy="693.5" rx="255.508" ry="17.5" fill="white"/>
<path d="M258.242 172.233C243.655 204 235.443 234.146 246.14 247.545C246.788 248.337 247.509 249.094 248.301 249.814C256.513 257.053 272.829 257.269 300.274 246.356C373.316 217.507 376.774 167.695 391.577 119.072C406.164 70.9895 457.056 79.0933 458.352 79.3094C339.712 38.034 282.986 118.316 258.242 172.233Z" fill="url(#paint0_linear_18_564)"/>
<path d="M246.14 247.545C246.788 248.337 247.509 249.094 248.301 249.814C262.024 241.494 288.28 223.99 300.706 204.324C306.541 195.032 311.403 184.551 316.589 173.53C326.422 152.568 336.687 130.958 354.407 114.426L352.462 112.265C334.31 129.229 323.937 151.055 313.996 172.233C308.81 183.254 303.947 193.627 298.221 202.704C286.119 221.937 259.538 239.549 246.14 247.545Z" fill="url(#paint1_linear_18_564)"/>
<path d="M270.884 185.199C271.748 187.36 272.288 188.549 272.396 188.657C272.613 187.504 272.829 186.352 273.045 185.199C282.769 135.28 295.843 130.093 334.958 86.3328C374.937 41.7077 351.922 0 351.922 0C217.939 38.6822 261.807 162.941 270.884 185.199Z" fill="url(#paint2_linear_18_564)"/>
<path d="M270.884 185.199C271.748 187.36 272.288 188.549 272.396 188.657C272.612 187.504 272.828 186.352 273.045 185.199C268.723 142.087 294.763 91.4112 302.975 82.2268C311.403 72.8264 316.697 59.8603 318.642 54.998C318.966 54.2416 319.29 53.4853 319.398 53.2692L317.454 52.1887C317.345 52.5128 317.129 53.0531 316.589 54.2416C314.644 58.9959 309.566 71.6378 301.354 80.8222C290.981 92.3836 266.886 143.276 270.884 185.199Z" fill="url(#paint3_linear_18_564)"/>
<path d="M15.6674 456.948H258.89V448.844H15.6674V456.948Z" fill="white"/>
<path d="M78.2289 419.022H258.89V410.918H78.2289V419.022Z" fill="url(#paint4_linear_18_564)"/>
<path d="M63.7501 438.039H258.89V429.827H63.7501V438.039Z" fill="url(#paint5_linear_18_564)"/>
<path d="M132.254 456.948H258.89V448.844H132.254V456.948Z" fill="url(#paint6_linear_18_564)"/>
<g style="mix-blend-mode:hard-light">
<path d="M24.8517 553.653H382.825C396.547 553.653 407.676 542.524 407.676 528.802V205.189C407.676 191.466 396.547 180.337 382.825 180.337H24.8517C11.1292 180.337 -5.79662e-05 191.466 -5.79662e-05 205.189V528.802C-5.79662e-05 542.524 11.1292 553.653 24.8517 553.653Z" fill="white"/>
</g>
<path fill-rule="evenodd" clip-rule="evenodd" d="M329.88 328.043C353.867 319.507 368.67 296.6 367.913 272.397C367.805 266.562 366.725 260.619 364.564 254.784C358.297 237.172 344.25 224.53 327.719 219.343C316.157 215.778 303.515 215.778 291.305 220.1C290.081 220.532 288.892 221 287.74 221.504C282.445 223.774 277.691 226.799 273.477 230.365C255.757 245.384 248.301 270.344 256.621 293.466C267.318 323.181 300.057 338.74 329.88 328.043ZM270.127 288.604C263.968 271.208 269.479 252.623 282.769 241.386C285.903 238.685 289.468 236.416 293.466 234.687C294.331 234.327 295.231 233.966 296.168 233.606C305.244 230.365 314.752 230.365 323.396 233.066C335.822 236.956 346.411 246.464 351.058 259.647C352.678 263.969 353.435 268.399 353.543 272.829C354.083 290.981 343.062 308.161 325.125 314.536C302.759 322.532 278.123 310.971 270.127 288.604Z" fill="#78C3FF"/>
<path d="M323.397 233.066L327.719 219.343C344.25 224.53 358.297 237.172 364.564 254.784C366.725 260.619 367.806 266.562 367.914 272.397L353.543 272.829C353.435 268.399 352.678 263.969 351.058 259.647C346.411 246.464 335.822 236.956 323.397 233.066Z" fill="#1173C2"/>
<path d="M293.467 234.687L287.74 221.504C288.892 221 290.081 220.532 291.306 220.1C303.515 215.778 316.157 215.778 327.719 219.343L323.397 233.066C314.753 230.365 305.244 230.365 296.168 233.606C295.231 233.966 294.331 234.327 293.467 234.687Z" fill="#1487E3"/>
<path d="M273.477 230.365C277.691 226.799 282.445 223.774 287.74 221.504L293.467 234.687C289.469 236.416 285.903 238.685 282.769 241.386L273.477 230.365Z" fill="#4AAFFF"/>
<path d="M74.123 409.837H94.0044V478.018H74.123V409.837Z" fill="#4AAFFF"/>
<path d="M103.729 428.962H123.61V478.018H103.729V428.962Z" fill="#4AAFFF"/>
<path d="M45.3813 378.178H65.2627V478.018H45.3813V378.178Z" fill="#4AAFFF"/>
<path d="M48.6228 328.367L48.947 326.206L101.46 334.85L118.532 371.155L175.151 374.937L193.519 402.058L236.74 400.977L236.848 403.138L192.331 404.219L173.962 377.098L117.127 373.208L99.9471 336.795L48.6228 328.367Z" fill="#4AAFFF"/>
<path d="M112.805 237.604H56.1863C52.6206 237.604 49.7033 234.687 49.7033 231.121C49.7033 227.555 52.6206 224.638 56.1863 224.638H112.805C116.371 224.638 119.288 227.555 119.288 231.121C119.288 234.687 116.371 237.604 112.805 237.604Z" fill="#1487E3"/>
<path d="M112.805 260.187H56.1863C52.6206 260.187 49.7033 257.269 49.7033 253.704C49.7033 250.138 52.6206 247.221 56.1863 247.221H112.805C116.371 247.221 119.288 250.138 119.288 253.704C119.288 257.269 116.371 260.187 112.805 260.187Z" fill="#4AAFFF"/>
<path d="M112.805 282.661H56.1863C52.6206 282.661 49.7033 279.852 49.7033 276.286C49.7033 272.721 52.6206 269.803 56.1863 269.803H112.805C116.371 269.803 119.288 272.721 119.288 276.286C119.288 279.852 116.371 282.661 112.805 282.661Z" fill="#4AAFFF"/>
<path d="M215.238 248.733H247.653V247.545H215.778L198.706 230.473H177.852V231.661H198.165L215.238 248.733Z" fill="#4AAFFF"/>
<path d="M184.551 305.244H226.259L239.657 291.846L238.793 290.873L225.719 304.055H184.551V305.244Z" fill="#4AAFFF"/>
<path d="M152.46 243.979H195.572V238.685H152.46V243.979Z" fill="#1487E3"/>
<path d="M174.07 298.005H208.754V292.71H174.07V298.005Z" fill="#1487E3"/>
<path d="M498.979 318.102C488.066 312.916 477.261 347.492 477.261 347.492C458.784 371.911 432.96 339.496 435.445 376.017C439.875 439.875 361.863 396.115 397.844 462.782C433.825 529.45 366.077 500.492 388.443 554.301C410.81 608.111 381.852 672.293 415.456 645.929C415.456 645.929 445.062 580.99 475.64 560.893C506.219 540.795 457.38 516.916 466.888 489.579C480.827 449.924 514.215 451.545 490.119 408.973C466.024 366.293 535.933 335.822 498.979 318.102Z" fill="url(#paint7_linear_18_564)"/>
<path d="M404.867 621.401C419.454 611.244 436.526 539.715 437.498 497.143C438.039 475.424 444.414 466.24 450.14 458.244C455.543 450.573 460.297 443.981 457.488 428.854C452.301 399.789 466.024 387.255 466.24 387.147L464.619 385.31C463.971 385.85 449.708 398.816 455.219 429.287C457.704 443.441 453.49 449.384 448.195 456.84C442.577 464.727 435.662 474.56 435.121 497.143C434.041 542.848 416.537 610.272 403.462 619.456L404.867 621.401Z" fill="white"/>
<path fill-rule="evenodd" clip-rule="evenodd" d="M399.356 626.696C401.229 626.768 403.282 626.552 405.515 626.047C411.134 624.967 414.808 621.941 416.537 617.295C420.426 606.058 411.35 587.797 403.895 578.937C403.787 578.829 391.469 563.702 392.765 542.74C392.981 539.174 393.306 535.933 393.63 533.124C394.602 524.804 395.25 518.861 391.685 514.863C388.551 511.297 382.5 509.785 371.479 509.676C352.03 509.568 344.358 501.573 338.2 495.09C335.606 492.388 333.121 489.795 330.096 488.174C320.371 482.88 310.214 482.124 305.784 486.338C303.623 488.282 301.894 492.28 305.352 499.52C308.486 506.219 312.7 510.433 316.049 513.891C320.479 518.429 323.397 521.454 321.884 527.397C321.524 528.838 321.128 530.278 320.695 531.719C317.67 541.984 314.32 553.545 331.825 561.433C335.498 563.054 338.956 564.458 341.873 565.539C354.191 570.401 361.539 573.318 369.858 590.823C371.479 594.28 372.884 597.522 374.289 600.655C380.88 615.458 385.85 626.696 399.356 626.696ZM328.907 490.227C331.608 491.74 333.878 494.117 336.471 496.818C342.954 503.626 350.95 512.054 371.371 512.162C381.636 512.162 387.255 513.458 389.848 516.376C392.765 519.617 392.117 525.128 391.253 532.799C390.928 535.717 390.604 539.066 390.388 542.632C388.984 564.566 401.517 579.91 402.058 580.558C409.405 589.202 417.725 606.598 414.159 616.431C412.863 620.321 409.837 622.806 405.083 623.67C388.551 627.02 384.013 616.755 376.45 599.683C375.045 596.549 373.64 593.308 372.02 589.85C363.267 571.374 355.164 568.132 342.846 563.378C339.82 562.189 336.471 560.893 332.797 559.164C317.238 552.249 320.047 542.632 323.072 532.367C323.505 530.927 323.901 529.486 324.261 528.045C326.098 520.698 322.424 516.916 317.778 512.162C314.32 508.704 310.539 504.814 307.513 498.547C305.892 495.198 304.596 490.66 307.405 488.066C311.079 484.609 320.263 485.581 328.907 490.227Z" fill="url(#paint8_linear_18_564)"/>
<path d="M405.299 640.634L407.676 640.526C407.568 638.257 404.543 584.988 383.149 569.321C359.594 552.249 352.246 533.772 348.68 521.454C344.574 506.867 323.397 502.977 322.532 502.869L322.1 505.246C322.316 505.246 342.63 509.028 346.411 522.102C349.977 534.852 357.649 553.761 381.744 571.266C402.166 586.177 405.299 640.094 405.299 640.634Z" fill="url(#paint9_linear_18_564)"/>
<path d="M356.352 371.911C371.587 366.725 368.346 396.007 374.829 417.725C381.204 439.443 446.358 427.234 419.022 481.583C391.685 535.933 453.598 499.736 435.121 547.17C416.644 594.605 433.5 645.28 413.403 632.422C393.305 619.456 402.057 559.812 381.204 552.681C360.35 545.549 356.892 537.338 377.638 517.996C398.276 498.763 323.396 479.53 341.873 440.632C360.35 401.625 338.74 377.962 356.352 371.911Z" fill="url(#paint10_linear_18_564)"/>
<path d="M404.111 630.153C405.948 622.049 422.371 550.52 407.028 541.876C393.63 534.312 393.954 504.706 396.007 476.721C397.952 451.977 366.185 440.416 364.78 439.984L364.024 442.253C364.24 442.361 395.359 453.706 393.63 476.613C391.469 505.246 391.253 535.717 405.84 544.037C417.509 550.628 406.812 608.003 401.734 629.613L404.111 630.153Z" fill="white"/>
<path d="M369.426 604.653L391.252 687.096H439.767L461.486 604.653H369.426Z" fill="url(#paint11_linear_18_564)"/>
<path d="M369.426 604.653C369.426 604.653 417.293 613.622 417.293 687.096H439.767L461.486 604.653H369.426Z" fill="url(#paint12_linear_18_564)"/>
<path d="M233.606 497.575H302.002V501.681H233.606V497.575Z" fill="#E2D2CA"/>
<path d="M292.818 697.037H286.875V512.27H292.818V697.037Z" fill="#706865"/>
<path d="M196.761 496.386H244.303V502.221H196.761V496.386Z" fill="#CCBDB7"/>
<path d="M211.456 501.681H229.5V446.899H211.456V501.681Z" fill="#998E89"/>
<path d="M62.9935 512.27H326.638V501.681H62.9935V512.27Z" fill="#B59074"/>
<path d="M377.206 438.147C377.206 438.147 380.123 478.558 372.127 483.42C367.265 486.446 347.492 496.71 348.032 498.547C348.68 500.492 359.269 515.619 359.269 515.619C359.269 515.619 397.087 490.659 398.384 482.772C399.572 475.1 396.439 423.56 391.253 421.183C387.363 419.454 385.31 420.967 380.339 424.532C373.532 429.719 377.206 438.147 377.206 438.147Z" fill="#FFB555"/>
<path d="M330.528 671.753C330.528 671.753 331.716 679.965 331.932 681.261C332.041 682.45 345.007 680.505 345.007 680.505L346.087 670.78C346.087 670.78 332.149 670.672 330.528 671.753Z" fill="#424773"/>
<path d="M331.716 680.181C331.716 680.181 327.61 685.151 323.612 687.204C319.723 689.365 313.456 690.23 311.079 692.499C309.35 694.119 304.92 701.035 321.451 700.819C337.875 700.711 345.871 701.791 347.6 699.198C349.437 696.497 345.115 679.641 345.115 679.641C345.115 679.641 341.225 681.045 331.716 680.181Z" fill="#292C47"/>
<path d="M247.437 671.861C247.437 671.861 248.625 680.073 248.841 681.261C248.949 682.558 261.916 680.613 261.916 680.613L262.996 670.78C262.996 670.78 249.058 670.672 247.437 671.861Z" fill="#424773"/>
<path d="M248.625 680.289C248.625 680.289 244.519 685.151 240.629 687.312C236.632 689.473 222.045 691.202 219.667 693.471C217.939 695.092 215.129 701.575 238.36 700.927C254.892 700.494 262.78 701.899 264.617 699.306C266.346 696.605 262.023 679.749 262.023 679.749C262.023 679.749 258.35 681.153 248.625 680.289Z" fill="#292C47"/>
<path d="M372.344 530.422C372.344 530.422 325.233 538.418 314.644 540.147C303.947 541.768 246.248 556.138 239.009 560.568C233.282 564.026 242.034 647.658 244.087 679.641H266.778L268.399 583.908C295.735 584.556 315.185 577.424 335.066 580.45C354.947 583.475 371.479 587.797 384.121 570.833C384.121 570.833 384.553 534.204 372.344 530.422Z" fill="#292C47"/>
<path d="M325.881 679.749L348.032 678.344L350.193 583.907C361.97 584.124 365.968 583.367 375.477 582.287L393.413 540.687C377.746 543.821 327.502 556.463 320.803 560.568C315.076 564.026 323.829 647.766 325.881 679.749Z" fill="#292C47"/>
<path d="M350.625 353.759C350.625 353.759 333.445 349.005 326.854 362.403C320.155 375.801 323.18 401.301 331.933 403.678C340.577 406.056 353.111 403.246 356.784 394.926C360.35 386.606 363.267 374.721 362.403 367.049C361.539 359.378 355.272 355.596 350.625 353.759Z" fill="#EEA886"/>
<path d="M336.471 400.977C336.471 400.977 336.579 411.134 335.498 413.403C334.418 415.564 359.594 415.024 359.594 415.024C359.594 415.024 355.596 402.706 357.865 392.333C360.026 381.96 336.471 400.977 336.471 400.977Z" fill="#EEA886"/>
<path d="M359.162 388.443C359.162 388.443 357.865 391.145 351.274 390.712C344.791 390.28 336.255 382.392 333.445 381.744C330.636 380.988 330.528 379.475 330.528 379.475L329.015 382.068L326.206 382.5C326.206 382.5 328.151 374.613 323.937 371.803C319.723 368.994 325.774 346.736 347.06 352.138C347.06 352.138 363.267 355.056 363.484 364.132C363.7 373.208 362.295 383.689 359.162 388.443Z" fill="#3A3F47"/>
<path d="M334.202 413.079C334.202 413.079 334.202 408.973 336.147 408.541C337.983 408.109 355.92 405.731 358.189 406.596L359.27 412.106C359.27 412.106 354.731 414.808 334.202 413.079Z" fill="#E2D2CA"/>
<path d="M329.015 377.638C329.447 374.181 333.337 370.291 335.606 375.585C337.767 380.88 334.094 388.551 331.608 388.227C329.123 387.795 328.367 382.176 329.015 377.638Z" fill="#EEA886"/>
<path d="M259.106 462.242C259.106 462.17 259.106 462.17 259.106 462.242C259.034 462.242 259.034 462.242 259.106 462.242Z" fill="#323657"/>
<path d="M355.704 356.244C355.704 356.244 376.774 355.272 359.378 388.119L355.704 356.244Z" fill="#3A3F47"/>
<path d="M402.706 690.878L401.085 695.308L334.85 674.778L338.092 665.81L402.706 690.878Z" fill="#918783"/>
<path d="M332.581 671.645H340.144V599.683H332.581V671.645Z" fill="#918783"/>
<path d="M314.212 600.115H358.513V595.793H314.212V600.115Z" fill="#5E5854"/>
<path d="M269.479 690.878L271.1 695.308L337.227 674.778L334.31 665.27L269.479 690.878Z" fill="#918783"/>
<path d="M316.157 694.876V699.954L337.227 674.778L334.31 665.27L316.157 694.876Z" fill="#918783"/>
<path d="M263.32 697.037C263.32 700.495 266.021 703.196 269.479 703.196C272.937 703.196 275.638 700.495 275.638 697.037C275.638 693.579 272.937 690.878 269.479 690.878C266.021 690.878 263.32 693.579 263.32 697.037Z" fill="#BFB2AC"/>
<path d="M315.617 697.037C315.617 700.495 318.426 703.196 321.776 703.196C325.233 703.196 328.043 700.495 328.043 697.037C328.043 693.579 325.233 690.878 321.776 690.878C318.426 690.878 315.617 693.579 315.617 697.037Z" fill="#BFB2AC"/>
<path d="M396.439 697.037C396.439 700.495 399.248 703.196 402.706 703.196C406.055 703.196 408.865 700.495 408.865 697.037C408.865 693.579 406.055 690.878 402.706 690.878C399.248 690.878 396.439 693.579 396.439 697.037Z" fill="#BFB2AC"/>
<path d="M291.414 595.793H380.772C385.094 595.793 388.659 592.227 388.659 587.905V587.689C388.659 583.259 385.094 579.802 380.772 579.802H291.414C286.983 579.802 283.526 583.259 283.526 587.689V587.905C283.526 592.227 286.983 595.793 291.414 595.793Z" fill="#E2D2CA"/>
<path d="M96.7056 697.037H102.648V512.27H96.7056V697.037Z" fill="#706865"/>
<path d="M150.623 473.263H290.441C294.763 473.263 298.329 469.698 298.329 465.376V371.479C298.329 367.049 294.763 363.484 290.441 363.484H150.623C146.301 363.484 142.735 367.049 142.735 371.479V465.376C142.735 469.698 146.301 473.263 150.623 473.263Z" fill="#B8ABA5"/>
<path d="M148.786 456.083H292.17V369.426H148.786V456.083Z" fill="#F5F7FF"/>
<path d="M155.161 464.295C155.161 466.78 157.754 468.725 160.996 468.725C164.129 468.725 166.723 466.78 166.723 464.295C166.723 461.81 164.129 459.757 160.996 459.757C157.754 459.757 155.161 461.81 155.161 464.295Z" fill="#918681"/>
<path d="M188.333 501.897V499.952C188.333 499.952 191.034 487.742 210.483 487.742C229.932 487.742 229.5 501.897 229.5 501.897H188.333Z" fill="#998E89"/>
<path d="M229.716 489.579C229.716 489.579 225.502 489.255 223.99 488.282C222.369 487.418 213.185 481.151 211.024 482.124C208.863 483.096 194.384 487.526 194.816 489.687C195.356 491.848 196.761 491.632 197.733 491.2C198.706 490.876 209.295 488.607 210.159 489.039C210.159 489.039 199.894 492.821 199.786 495.522C199.786 498.223 201.947 498.979 202.92 499.952C203.892 501.032 205.081 503.626 207.782 503.842C210.375 503.95 223.341 499.52 226.043 499.304C228.744 499.088 233.714 499.412 234.038 498.979C234.363 498.547 229.716 489.579 229.716 489.579Z" fill="#EEA886"/>
<path d="M306.54 418.806C320.047 416.537 334.201 413.079 334.201 413.079L359.269 412.106C359.269 412.106 382.176 417.185 391.252 421.183C392.117 421.615 392.117 441.712 394.494 447.007L386.93 462.89C386.93 462.89 382.608 494.225 381.744 508.164C381.312 514.647 382.932 570.077 382.932 570.077C382.932 570.077 380.663 571.266 363.591 573.102C346.411 574.939 303.731 572.454 303.515 570.401C303.191 568.348 311.727 495.198 312.159 491.416C312.699 485.581 310.43 458.676 310.43 458.676C307.189 462.998 298.977 482.556 290.441 491.848C285.362 497.359 260.511 500.708 255.756 500.816C245.492 501.248 226.907 503.193 226.367 502.221C225.934 501.681 224.746 485.689 225.826 485.257C226.907 484.933 261.591 482.988 270.451 478.234C273.693 476.505 283.417 455.327 283.417 455.327C283.417 455.327 299.085 422.155 306.54 418.806Z" fill="url(#paint13_linear_18_564)"/>
<path d="M355.92 568.456H397.952C406.38 568.456 413.187 561.649 413.187 553.221V483.312C413.187 474.884 406.38 468.077 397.952 468.077H355.92C347.492 468.077 340.685 474.884 340.685 483.312V553.221C340.685 561.649 347.492 568.456 355.92 568.456Z" fill="#E2D2CA"/>
<path d="M353.543 591.795C364.24 591.795 372.884 588.23 379.367 581.206C393.846 565.107 391.252 537.013 391.144 535.825C390.928 533.556 388.875 531.935 386.714 532.151C384.445 532.475 382.824 534.42 383.041 536.581C383.149 536.905 385.418 562.405 373.316 575.804C368.454 581.098 361.971 583.799 353.543 583.799C351.274 583.799 349.545 585.528 349.545 587.797C349.545 590.066 351.274 591.795 353.543 591.795Z" fill="#E2D2CA"/>
<path d="M241.17 380.988H280.932C281.581 380.988 282.013 380.447 282.013 379.799V377.53C282.013 376.882 281.581 376.342 280.932 376.342H241.17C240.521 376.342 239.981 376.882 239.981 377.53V379.799C239.981 380.447 240.521 380.988 241.17 380.988Z" fill="#DFE1E8"/>
<path d="M241.17 390.712H280.932C281.581 390.712 282.013 390.28 282.013 389.632V387.363C282.013 386.714 281.581 386.174 280.932 386.174H241.17C240.521 386.174 239.981 386.714 239.981 387.363V389.632C239.981 390.28 240.521 390.712 241.17 390.712Z" fill="#DFE1E8"/>
<path d="M243.871 449.168H278.231C280.284 449.168 282.013 447.439 282.013 445.386V401.301C282.013 399.14 280.284 397.411 278.231 397.411H243.871C241.71 397.411 239.981 399.14 239.981 401.301V445.386C239.981 447.439 241.71 449.168 243.871 449.168Z" fill="#DFE1E8"/>
<path d="M162.833 449.168H225.502C228.852 449.168 231.553 446.467 231.553 443.117V382.392C231.553 379.043 228.852 376.342 225.502 376.342H162.833C159.483 376.342 156.782 379.043 156.782 382.392V443.117C156.782 446.467 159.483 449.168 162.833 449.168Z" fill="#DFE1E8"/>
<defs>
<linearGradient id="paint0_linear_18_564" x1="232.92" y1="76.5552" x2="457.556" y2="64.4524" gradientUnits="userSpaceOnUse">
<stop stop-color="#40D5E6"/>
<stop offset="1" stop-color="#5577FF"/>
</linearGradient>
<linearGradient id="paint1_linear_18_564" x1="701.95" y1="682.87" x2="806.659" y2="564.315" gradientUnits="userSpaceOnUse">
<stop stop-color="#40D5E6"/>
<stop offset="1" stop-color="#5577FF"/>
</linearGradient>
<linearGradient id="paint2_linear_18_564" x1="250.655" y1="5.4717" x2="356.982" y2="-0.256458" gradientUnits="userSpaceOnUse">
<stop stop-color="#40D5E6"/>
<stop offset="1" stop-color="#5577FF"/>
</linearGradient>
<linearGradient id="paint3_linear_18_564" x1="560.449" y1="350.113" x2="636.817" y2="214.876" gradientUnits="userSpaceOnUse">
<stop stop-color="#40D5E6"/>
<stop offset="1" stop-color="#5577FF"/>
</linearGradient>
<linearGradient id="paint4_linear_18_564" x1="-10.5177" y1="419.004" x2="336.71" y2="419.004" gradientUnits="userSpaceOnUse">
<stop stop-color="#FFC05C"/>
<stop offset="1" stop-color="#FF3857"/>
</linearGradient>
<linearGradient id="paint5_linear_18_564" x1="-10.5188" y1="437.985" x2="336.708" y2="437.985" gradientUnits="userSpaceOnUse">
<stop stop-color="#FFC05C"/>
<stop offset="1" stop-color="#FF3857"/>
</linearGradient>
<linearGradient id="paint6_linear_18_564" x1="-10.5177" y1="456.968" x2="336.708" y2="456.968" gradientUnits="userSpaceOnUse">
<stop stop-color="#FFC05C"/>
<stop offset="1" stop-color="#FF3857"/>
</linearGradient>
<linearGradient id="paint7_linear_18_564" x1="509.947" y1="317.572" x2="383.836" y2="317.572" gradientUnits="userSpaceOnUse">
<stop stop-color="#40D5E6"/>
<stop offset="1" stop-color="#5577FF"/>
</linearGradient>
<linearGradient id="paint8_linear_18_564" x1="417.431" y1="483.612" x2="303.36" y2="483.612" gradientUnits="userSpaceOnUse">
<stop stop-color="#40D5E6"/>
<stop offset="1" stop-color="#5577FF"/>
</linearGradient>
<linearGradient id="paint9_linear_18_564" x1="407.685" y1="502.868" x2="322.063" y2="502.868" gradientUnits="userSpaceOnUse">
<stop stop-color="#40D5E6"/>
<stop offset="1" stop-color="#5577FF"/>
</linearGradient>
<linearGradient id="paint10_linear_18_564" x1="438.598" y1="371.306" x2="338.907" y2="371.306" gradientUnits="userSpaceOnUse">
<stop stop-color="#40D5E6"/>
<stop offset="1" stop-color="#5577FF"/>
</linearGradient>
<linearGradient id="paint11_linear_18_564" x1="461.487" y1="604.679" x2="369.472" y2="604.679" gradientUnits="userSpaceOnUse">
<stop stop-color="#FF9340"/>
<stop offset="1" stop-color="#FFCE45"/>
</linearGradient>
<linearGradient id="paint12_linear_18_564" x1="461.487" y1="604.679" x2="369.472" y2="604.679" gradientUnits="userSpaceOnUse">
<stop stop-color="#C97332"/>
<stop offset="1" stop-color="#FFCE45"/>
</linearGradient>
<linearGradient id="paint13_linear_18_564" x1="394.386" y1="440.524" x2="337.119" y2="573.967" gradientUnits="userSpaceOnUse">
<stop stop-color="#FFB555"/>
<stop offset="0.208125" stop-color="#F6AF52"/>
<stop offset="1" stop-color="#996D33"/>
</linearGradient>
</defs>
</svg>
